<?xml version="1.0" standalone="no"?>
<!DOCTYPE svg PUBLIC "-//W3C//DTD SVG 20010904//EN"
 "http://www.w3.org/TR/2001/REC-SVG-20010904/DTD/svg10.dtd">
<svg version="1.0" xmlns="http://www.w3.org/2000/svg"
 width="512.000000pt" height="512.000000pt" viewBox="0 0 512.000000 512.000000"
 preserveAspectRatio="xMidYMid meet">
<metadata>
Created by potrace 1.14, written by Peter Selinger 2001-2017
</metadata>
<g transform="translate(0.000000,512.000000) scale(0.100000,-0.100000)"
fill="#000000" stroke="none">
<path d="M2474 4771 c-48 -22 -831 -798 -861 -853 -24 -46 -24 -161 1 -207 10
-19 198 -214 417 -433 425 -425 440 -437 535 -438 95 0 117 17 541 442 420
422 432 436 433 534 0 96 -17 116 -452 549 -433 431 -426 425 -529 425 -24 0
-63 -9 -85 -19z"/>
<path d="M3720 3523 c-22 -9 -186 -165 -433 -411 -430 -429 -447 -450 -447
-546 1 -95 13 -110 438 -535 219 -219 414 -407 433 -417 45 -24 161 -25 205
-2 17 9 214 200 437 423 447 447 445 444 434 551 -3 32 -16 72 -31 97 -39 66
-803 821 -850 841 -47 20 -139 19 -186 -1z"/>
<path d="M1235 3519 c-16 -7 -44 -22 -62 -35 -56 -42 -803 -796 -820 -827 -8
-17 -18 -56 -20 -88 -10 -105 0 -117 440 -556 289 -288 405 -398 438 -412 56
-26 131 -26 186 -2 29 14 160 138 442 420 220 221 407 414 416 430 8 16 17 53
20 83 11 108 12 106 -430 549 -220 220 -415 409 -433 421 -38 24 -133 33 -177
17z"/>
<path d="M2470 2267 c-48 -14 -840 -801 -870 -864 -24 -52 -26 -138 -4 -191
19 -47 802 -834 854 -859 19 -9 59 -19 88 -21 104 -9 103 -9 546 434 279 279
410 417 424 446 25 53 24 137 -2 191 -27 56 -809 835 -861 858 -44 20 -120 23
-175 6z"/>
</g>
</svg>
